<?xml version="1.0" encoding="UTF-8"?>
<svg id="Layer_1" data-name="Layer 1" xmlns="http://www.w3.org/2000/svg" xmlns:xlink="http://www.w3.org/1999/xlink" viewBox="0 0 248.3 82.1">
  <defs>
    <style>
      .cls-1 {
        fill: url(#linear-gradient);
      }

      .cls-1, .cls-2 {
        fill-rule: evenodd;
      }

      .cls-1, .cls-2, .cls-3, .cls-4, .cls-5 {
        stroke-width: 0px;
      }

      .cls-2, .cls-4 {
        fill: #2e2864;
      }

      .cls-3 {
        fill: #878787;
      }

      .cls-5 {
        fill: #0077b7;
      }
    </style>
    <linearGradient id="linear-gradient" x1="433.64" y1="54.58" x2="396.34" y2="29.13" gradientTransform="translate(-372 81.89) scale(1 -1)" gradientUnits="userSpaceOnUse">
      <stop offset="0" stop-color="#0090d7"/>
      <stop offset=".09" stop-color="#0087cb"/>
      <stop offset=".28" stop-color="#006fac"/>
      <stop offset=".55" stop-color="#084680"/>
      <stop offset=".75" stop-color="#2e2864"/>
    </linearGradient>
  </defs>
  <g>
    <path class="cls-3" d="m113,57.9h1c1.6,0,3,.4,2.7,2.3-.1.6-.5,1.3-1.1,1.6h0c.9.2,1.5,1.1,1.3,2.1-.3,1.7-1.8,2.3-3.2,2.3h-1.9l1.2-8.3Zm-.1,7.4h.8c1,0,2-.3,2.2-1.5.2-1.2-1-1.4-1.9-1.4h-.6l-.5,2.9Zm.6-3.7h.3c1,0,1.8-.2,2-1.4s-.6-1.4-1.5-1.4h-.3l-.5,2.8Z"/>
    <path class="cls-3" d="m119.3,61.1l-.5,2.8c-.1.8,0,1.6.9,1.6,1,0,1.3-.7,1.4-1.6l.5-2.8h1l-.5,3c-.2,1.4-1,2.4-2.6,2.4-1.5,0-2-1-1.8-2.4l.5-3s1.1,0,1.1,0Z"/>
    <path class="cls-3" d="m125.9,62.2c-.1-.3-.3-.5-.6-.5s-.6.2-.6.5c-.1.5.5.6,1.1.9.6.3,1.1.6,1,1.5-.2,1-1.1,1.7-2,1.7-.7,0-1.4-.4-1.6-1.2l.9-.4c.1.4.4.7.8.7s.8-.3.9-.7c0-.3-.1-.4-.3-.6l-.9-.5c-.5-.3-.9-.6-.8-1.3.1-.8.9-1.5,1.7-1.5.6,0,1.1.3,1.3.9l-.9.5Z"/>
    <path class="cls-3" d="m128.7,66.2h-1l.8-5.1h1l-.8,5.1Zm1.3-7.5c-.1.4-.4.7-.8.7s-.6-.3-.6-.7c.1-.4.4-.7.8-.7s.7.3.6.7Z"/>
    <path class="cls-3" d="m131.9,61.8h0c.4-.6,1.1-.8,1.7-.8,1.5,0,1.7,1,1.5,2.2l-.5,3.1h-1l.5-2.9c.1-.9.1-1.5-.9-1.5-1.3,0-1.5,1.1-1.6,2.1l-.4,2.4h-1l.8-5.1h1l-.1.5Z"/>
    <path class="cls-3" d="m137,63.8c-.1.9.3,1.7,1.3,1.7.8,0,1.2-.4,1.7-1l.8.5c-.6.9-1.6,1.4-2.6,1.4-1.6,0-2.3-1.2-2.1-2.7.3-1.6,1.3-2.8,2.9-2.8s2.2,1.2,2,2.7v.2s-4,0-4,0Zm3-.7c0-.8-.4-1.3-1.2-1.3s-1.4.6-1.7,1.3h2.9Z"/>
    <path class="cls-3" d="m144.1,62.2c-.1-.3-.3-.5-.6-.5s-.6.2-.6.5c-.1.5.5.6,1.1.9.6.3,1.1.6,1,1.5-.2,1-1.1,1.7-2,1.7-.7,0-1.4-.4-1.6-1.2l.9-.4c.1.4.4.7.8.7s.8-.3.9-.7c0-.3-.1-.4-.3-.6l-.9-.5c-.5-.3-.9-.6-.8-1.3.1-.8.9-1.5,1.7-1.5.6,0,1.1.3,1.3.9l-.9.5Z"/>
    <path class="cls-3" d="m148.3,62.2c-.1-.3-.3-.5-.6-.5s-.6.2-.6.5c-.1.5.5.6,1.1.9.6.3,1.1.6,1,1.5-.2,1-1.1,1.7-2,1.7-.7,0-1.4-.4-1.6-1.2l.9-.4c.1.4.4.7.8.7s.8-.3.9-.7c0-.3-.1-.4-.3-.6l-.9-.5c-.5-.3-.9-.6-.8-1.3.1-.8.9-1.5,1.7-1.5.6,0,1.1.3,1.3.9l-.9.5Z"/>
    <path class="cls-3" d="m157.9,59.5c-.2-.5-.6-.8-1.2-.8-.7,0-1.5.5-1.6,1.2-.1.6.5,1,1,1.2l.6.2c1.1.5,1.9,1.1,1.7,2.5-.2,1.5-1.6,2.6-3.1,2.6-1.3,0-2.2-1-2.2-2.3l1.1-.2c-.2.9.5,1.6,1.4,1.6s1.7-.7,1.8-1.6-.5-1.3-1.2-1.6l-.5-.2c-.9-.4-1.7-.9-1.5-2.1.2-1.3,1.5-2.1,2.8-2.1.9,0,1.6.5,1.9,1.3l-1,.3Z"/>
    <path class="cls-3" d="m160.1,66.2h-1l.8-5.1h1l-.8,5.1Zm1.4-7.5c-.1.4-.4.7-.8.7s-.6-.3-.6-.7c.1-.4.4-.7.8-.7s.7.3.6.7Z"/>
    <path class="cls-3" d="m163.4,61.7h0c.4-.5.9-.8,1.5-.8.7,0,1.1.3,1.3.9.4-.6,1.1-.9,1.7-.9,1.4,0,1.5,1.1,1.4,2.2l-.5,3.1h-1l.5-2.9c.1-.7.2-1.5-.7-1.5-1.1,0-1.3,1.1-1.4,1.9l-.4,2.5h-1l.4-2.7c.1-.7.2-1.7-.7-1.7-1.1,0-1.3,1.1-1.5,1.9l-.4,2.5h-1l.8-5.1h1v.6Z"/>
    <path class="cls-3" d="m171.7,61.9h0c.5-.6,1.2-1,2-1,1.5,0,2.2,1.3,2,2.7-.2,1.5-1.3,2.8-2.9,2.8-.7,0-1.3-.4-1.6-1h0l-.6,3.8h-1l1.3-8.1h1l-.2.8Zm3,1.7c.2-1-.3-1.8-1.4-1.8-1,0-1.8.9-1.9,1.8-.2,1,.3,1.9,1.3,1.9,1.1,0,1.8-.8,2-1.9Z"/>
    <path class="cls-3" d="m177.3,66.2h-1l1.5-9.6h1l-1.5,9.6Z"/>
    <path class="cls-3" d="m179.9,66.2h-1l.8-5.1h1l-.8,5.1Zm1.4-7.5c-.1.4-.4.7-.8.7s-.6-.3-.6-.7c.1-.4.4-.7.8-.7s.7.3.6.7Z"/>
    <path class="cls-3" d="m185.4,57.7c-.2-.1-.4-.2-.6-.2-.7,0-.8.9-.9,1.4l-.4,2.2h1.4l-.1.9h-1.4l-.7,4.2h-1l.7-4.2h-.5l.1-.9h.5l.4-2.5c.2-1.1.7-2,2-2,.2,0,.5,0,.7.1l-.2,1Zm.2,8.5h-1l.8-5.1h1l-.8,5.1Zm1.3-7.5c-.1.4-.4.7-.8.7s-.6-.3-.6-.7c.1-.4.4-.7.8-.7s.7.3.6.7Z"/>
    <path class="cls-3" d="m188.1,63.8c-.1.9.3,1.7,1.3,1.7.8,0,1.2-.4,1.7-1l.8.5c-.6.9-1.6,1.4-2.6,1.4-1.6,0-2.3-1.2-2.1-2.7.3-1.6,1.3-2.8,2.9-2.8s2.2,1.2,2,2.7v.2s-4,0-4,0Zm3.1-.7c0-.8-.4-1.3-1.2-1.3s-1.4.6-1.7,1.3h2.9Z"/>
    <path class="cls-3" d="m196.5,65.4h0c-.5.6-1.2,1-1.9,1-1.6,0-2.3-1.3-2-2.8.2-1.4,1.4-2.7,2.8-2.7.8,0,1.3.4,1.6,1h0l.8-5.3h1l-1.5,9.6h-1l.2-.8Zm.3-1.8c.2-1-.3-1.8-1.4-1.8-1,0-1.8.9-1.9,1.8-.2,1,.3,1.9,1.3,1.9,1.1,0,1.8-.8,2-1.9Z"/>
  </g>
  <g>
    <path class="cls-4" d="m83,28h13.2v.6c0,.6-.1,1.2-.2,1.8-.1.6-.3,1.2-.6,1.8h-8.3l-.9,5.2h6.6c0,1.3-.2,2.7-.7,4.2h-6.6l-1.2,6.4h8.6v.6c0,.6-.1,1.2-.2,1.8s-.3,1.2-.5,1.9h-13.5l4.3-24.3Z"/>
    <path class="cls-4" d="m100.5,43.2l-1.9-8.4c.8-.1,1.6-.2,2.4-.2.4,0,.8,0,1.1.1.3,0,.7.1,1.1.2l1.8,8.4-3.5,5.9c-.4.6-.7,1.2-.8,1.6-.2.4-.3.9-.3,1.4-.6.1-1.1.2-1.6.2h-1.9c-.3,0-.8-.1-1.3-.2,0-.5.2-1,.3-1.5.2-.5.5-1,.9-1.6l3.7-5.9Zm4.8,0l3.1-5.3c.4-.6.6-1.2.7-1.7s.1-1,.2-1.5c.6-.1,1.1-.2,1.5-.2h2.1c.3,0,.7.1,1.1.1,0,.4-.1,1-.2,1.6s-.4,1.3-.9,2.1l-3,4.6,2.1,9.1c-.9.1-1.8.2-2.5.2-.8,0-1.6-.1-2.4-.2l-1.8-8.8Z"/>
    <path class="cls-4" d="m125.9,48c.2.4.4.9.6,1.4.2.6.2,1.3.2,2.2-.7.3-1.5.5-2.3.7-.8.1-1.7.2-2.7.2-2.6,0-4.4-.6-5.6-1.9-1.2-1.2-1.8-2.9-1.8-5.1,0-1.3.2-2.6.7-4,.4-1.3,1.1-2.5,1.9-3.6.9-1.1,1.9-1.9,3.1-2.6,1.2-.7,2.7-1,4.3-1,.8,0,1.5.1,2.2.2.7.1,1.4.3,2,.5,0,.6-.1,1.2-.3,1.9s-.5,1.3-.8,1.9c-.5-.2-1-.4-1.5-.5s-1-.2-1.6-.2c-.9,0-1.6.2-2.3.6-.6.4-1.2.9-1.6,1.5s-.8,1.4-1,2.2-.3,1.7-.3,2.6c0,1.2.3,2.1.9,2.7.6.6,1.4.9,2.4.9.5,0,1,0,1.5-.1.7,0,1.3-.2,2-.5Z"/>
    <path class="cls-4" d="m133.7,45.6c.1,1.1.5,1.9,1.1,2.4s1.4.8,2.6.8c.9,0,1.7-.1,2.4-.3s1.4-.4,2.2-.8c.4.4.6,1,.7,1.6.1.6.2,1.3.2,2-.4.2-.8.3-1.3.5-.5.1-1,.3-1.6.4-.5.1-1.1.2-1.6.2-.5.1-1,.1-1.4.1-1.4,0-2.5-.2-3.5-.5s-1.8-.8-2.4-1.4c-.6-.6-1.1-1.4-1.4-2.2-.3-.9-.5-1.9-.5-2.9,0-1.4.2-2.7.7-4s1.1-2.5,2-3.5,1.9-1.9,3.2-2.5c1.2-.6,2.6-1,4.2-1,.7,0,1.4.1,2.1.3.6.2,1.2.5,1.7.8.5.4.8.8,1.1,1.4.3.5.4,1.2.4,1.9,0,1-.2,1.9-.7,2.6-.5.7-1.1,1.4-1.9,1.9-.8.5-1.7.9-2.7,1.3-1,.3-2,.6-3.1.7l-2.5.2Zm1.9-3.4c.9-.1,1.5-.3,2.1-.5.5-.2,1-.4,1.3-.7s.5-.5.6-.8.2-.5.2-.8c0-.4-.1-.8-.4-1-.3-.3-.7-.4-1.1-.4-.6,0-1.1.1-1.6.4-.5.3-.9.6-1.3,1-.4.4-.7.9-.9,1.5-.3.5-.5,1.1-.6,1.7l1.7-.4Z"/>
    <path class="cls-4" d="m148.3,34.1c.2-1.2.4-2.2.5-3.1s.2-1.6.2-2.2v-.6c0-.2,0-.4-.1-.6.4-.1.8-.1,1.3-.2.5,0,.9-.1,1.3-.1.6,0,1.4.1,2.1.2.1.3.2.8.2,1.3s0,1-.1,1.6-.2,1.3-.3,2l-2.7,13.6c-.1.4-.1.7-.1.9,0,.4.1.6.2.8.1.2.2.4.4.5s.3.2.5.2.4.1.6.1c.1,0,.3,0,.5-.1.2,0,.5-.1.7-.2.1.4.2.8.3,1.2s.1.9.1,1.4v.5c0,.2,0,.3-.1.5-.3.1-.8.2-1.3.3s-1.1.1-1.8.1c-1.5,0-2.7-.4-3.6-1.1-.9-.8-1.3-1.9-1.3-3.5,0-.3,0-.6.1-1,0-.3.1-.7.2-1.1l2.2-11.4Z"/>
    <path class="cls-4" d="m158.3,34.1c.2-1.2.4-2.2.5-3.1s.2-1.6.2-2.2v-1.2c.4-.1.8-.1,1.3-.2.5,0,.9-.1,1.3-.1.6,0,1.4.1,2.1.2.1.3.2.8.2,1.3s0,1-.1,1.6-.2,1.3-.3,2l-2.7,13.6c-.1.4-.1.7-.1.9,0,.4.1.6.2.8.1.2.2.4.4.5s.3.2.5.2.4.1.6.1c.1,0,.3,0,.5-.1s.5-.1.7-.2c.1.4.2.8.3,1.2s.1.9.1,1.4v.5c0,.2,0,.3-.1.5-.3.1-.8.2-1.3.3s-1.1.1-1.8.1c-1.5,0-2.7-.4-3.6-1.1-.9-.8-1.3-1.9-1.3-3.5,0-.3,0-.6.1-1,0-.3.1-.7.2-1.1l2.1-11.4Z"/>
    <path class="cls-4" d="m170.5,45.6c.1,1.1.5,1.9,1.1,2.4s1.4.8,2.6.8c.9,0,1.7-.1,2.4-.3s1.4-.4,2.2-.8c.4.4.6,1,.7,1.6.1.6.2,1.3.2,2-.4.2-.8.3-1.3.5-.5.1-1,.3-1.6.4-.5.1-1.1.2-1.6.2-.5.1-1,.1-1.4.1-1.4,0-2.5-.2-3.5-.5s-1.8-.8-2.4-1.4c-.6-.6-1.1-1.4-1.4-2.2-.3-.9-.5-1.9-.5-2.9,0-1.4.2-2.7.7-4s1.1-2.5,2-3.5,1.9-1.9,3.2-2.5c1.2-.6,2.6-1,4.2-1,.7,0,1.4.1,2.1.3.6.2,1.2.5,1.7.8.5.4.8.8,1.1,1.4.3.5.4,1.2.4,1.9,0,1-.2,1.9-.7,2.6-.5.7-1.1,1.4-1.9,1.9-.8.5-1.7.9-2.7,1.3-1,.3-2,.6-3.1.7l-2.5.2Zm1.9-3.4c.9-.1,1.5-.3,2.1-.5.5-.2,1-.4,1.3-.7s.5-.5.6-.8.2-.5.2-.8c0-.4-.1-.8-.4-1-.3-.3-.7-.4-1.1-.4-.6,0-1.1.1-1.6.4-.5.3-.9.6-1.3,1-.4.4-.7.9-.9,1.5-.3.5-.5,1.1-.6,1.7l1.7-.4Z"/>
    <path class="cls-4" d="m183.9,42.3c.2-1.4.4-2.7.6-3.7.1-1.1.2-1.9.2-2.5v-1.2c.7-.1,1.5-.2,2.2-.2.3,0,.7,0,1,.1.3,0,.7.1,1.1.2,0,.2.1.4.1.6s.1.6.1,1.1v.6c0,.2,0,.4-.1.7.3-.5.6-.9,1-1.3.4-.4.9-.8,1.4-1.1s1.1-.6,1.7-.7c.6-.2,1.2-.3,1.8-.3,1.3,0,2.4.3,3.1,1,.7.7,1.1,1.8,1.1,3.4,0,.3,0,.7-.1,1.1,0,.4-.1.8-.2,1.2l-1.9,11c-.9.1-1.7.2-2.5.2s-1.6-.1-2.3-.2l1.9-10.6c.1-.4.1-.9.1-1.3,0-.7-.1-1.1-.4-1.4-.3-.3-.7-.4-1.2-.4-.3,0-.7.1-1.1.2-.4.2-.8.5-1.2,1s-.8,1.2-1.2,2.1c-.4.9-.7,2.1-1,3.6l-1.2,6.7c-.9.1-1.7.2-2.5.2s-1.6-.1-2.3-.2l1.8-9.9Z"/>
    <path class="cls-4" d="m212.7,48c.2.4.4.9.6,1.4.2.6.2,1.3.2,2.2-.7.3-1.5.5-2.3.7-.8.1-1.7.2-2.7.2-2.6,0-4.4-.6-5.6-1.9-1.2-1.2-1.8-2.9-1.8-5.1,0-1.3.2-2.6.7-4,.4-1.3,1.1-2.5,1.9-3.6.9-1.1,1.9-1.9,3.1-2.6,1.2-.7,2.7-1,4.3-1,.8,0,1.5.1,2.2.2.7.1,1.4.3,2,.5,0,.6-.1,1.2-.3,1.9s-.5,1.3-.8,1.9c-.5-.2-1-.4-1.5-.5s-1-.2-1.6-.2c-.9,0-1.6.2-2.3.6-.6.4-1.2.9-1.6,1.5-.4.6-.8,1.4-1,2.2s-.3,1.7-.3,2.6c0,1.2.3,2.1.9,2.7.6.6,1.4.9,2.4.9.5,0,1,0,1.5-.1.7,0,1.3-.2,2-.5Z"/>
    <path class="cls-4" d="m220.5,45.6c.1,1.1.5,1.9,1.1,2.4s1.4.8,2.6.8c.9,0,1.7-.1,2.4-.3s1.4-.4,2.2-.8c.4.4.6,1,.7,1.6.1.6.2,1.3.2,2-.4.2-.8.3-1.3.5-.5.1-1,.3-1.6.4-.5.1-1.1.2-1.6.2-.5.1-1,.1-1.4.1-1.4,0-2.5-.2-3.5-.5s-1.8-.8-2.4-1.4c-.6-.6-1.1-1.4-1.4-2.2-.3-.9-.5-1.9-.5-2.9,0-1.4.2-2.7.7-4s1.1-2.5,2-3.5,1.9-1.9,3.2-2.5c1.2-.6,2.6-1,4.2-1,.7,0,1.4.1,2.1.3.6.2,1.2.5,1.7.8.5.4.8.8,1.1,1.4.3.5.4,1.2.4,1.9,0,1-.2,1.9-.7,2.6-.5.7-1.1,1.4-1.9,1.9-.8.5-1.7.9-2.7,1.3-1,.3-2,.6-3.1.7l-2.5.2Zm1.9-3.4c.9-.1,1.5-.3,2.1-.5.5-.2,1-.4,1.3-.7s.5-.5.6-.8.2-.5.2-.8c0-.4-.1-.8-.4-1-.3-.3-.7-.4-1.1-.4-.6,0-1.1.1-1.6.4-.5.3-.9.6-1.3,1-.4.4-.7.9-.9,1.5-.3.5-.5,1.1-.6,1.7l1.7-.4Z"/>
  </g>
  <g>
    <path class="cls-2" d="m46.1,20.1c-2.5-1.6-4.8-3.4-6.8-5.3-5.7,5.1-14.4,9.6-22.7,12.3.6,7.7,2.1,14.8,5,21.1,5.9-11.3,14.5-21.2,24.5-28.1Z"/>
    <path class="cls-1" d="m22.5,50.1c.3.7.7,1.3,1.1,1.9,5.6-6.7,12.3-12.5,19.5-17l1.9,3.6c-7.1,3.7-14.3,8.9-20.4,15,.3.5.7,1,1.1,1.5,10.2-7.6,22.1-12.9,34.2-14.9,1.1-4.2,1.8-8.6,2.2-13.2-4.1-1-7.7-2.4-10.9-4-10.9,6.3-21,15.6-28.7,27.1Z"/>
    <path class="cls-2" d="m26.8,56.7c3.2,4,7.3,7.4,12.4,10.2h.2c9.5-5.1,15.3-12.5,18.8-21.4-10.6,1.4-21.5,5.1-31.4,11.2Z"/>
  </g>
  <path class="cls-5" d="m64.1,27.7h-.9v-.4h2.2v.4h-.9v2.4h-.4s0-2.4,0-2.4Zm1.9-.4h.4l1,1.5,1-1.5h.4v2.8h-.4v-2.1l-1,1.5h-.1l-1-1.5v2.1h-.3v-2.8Z"/>
</svg>