<svg width="91" height="126" viewBox="0 0 91 126" fill="none" xmlns="http://www.w3.org/2000/svg">
<g opacity="0.05">
<path fill-rule="evenodd" clip-rule="evenodd" d="M70.671 12.7384C64.6819 8.89284 59.172 4.56659 54.3807 0C40.7257 12.2577 19.8837 23.0733 0 29.5627C1.43738 48.0694 5.03082 65.134 11.9781 80.2759C26.1123 53.1167 46.7147 29.3223 70.671 12.7384Z" fill="#2E2864"/>
<path fill-rule="evenodd" clip-rule="evenodd" d="M14.1328 84.843C14.8515 86.5254 15.8098 87.9675 16.768 89.4096C30.1835 73.3064 46.2342 59.3662 63.4827 48.5506L68.0344 57.2031C51.0255 66.096 33.777 78.594 19.1636 93.2552C19.8823 94.4569 20.8406 95.6586 21.7988 96.8604C46.2342 78.594 74.7422 65.8556 103.729 61.0487C106.364 50.9541 108.041 40.3788 109 29.3229C99.1776 26.9194 90.5533 23.5545 82.8873 19.709C56.775 34.8508 32.5791 57.2031 14.1328 84.843Z" fill="url(#paint0_linear_1740_2105)"/>
<path fill-rule="evenodd" clip-rule="evenodd" d="M24.4336 100.708C32.0996 110.322 41.9217 118.494 54.1394 125.223H54.6185C77.377 112.966 91.2716 95.1799 99.6563 73.7891C74.2626 77.1539 48.1503 86.0468 24.4336 100.708Z" fill="#2E2864"/>
</g>
<defs>
<linearGradient id="paint0_linear_1740_2105" x1="107.898" y1="30.0679" x2="18.3554" y2="90.9638" gradientUnits="userSpaceOnUse">
<stop stop-color="#0090D7"/>
<stop offset="0.09" stop-color="#0087CB"/>
<stop offset="0.28" stop-color="#006FAC"/>
<stop offset="0.55" stop-color="#084680"/>
<stop offset="0.75" stop-color="#2E2864"/>
</linearGradient>
</defs>
</svg>
