<svg width="343" height="155" viewBox="0 0 343 155" fill="none" xmlns="http://www.w3.org/2000/svg">
<path d="M61.2652 48.8534C67.1079 39.4403 85.7834 -1.07872 59.9319 2.18674C43.6255 4.24649 32.8566 21.0292 34.8208 36.7423C36.5469 50.5516 46.5512 61.9234 48.3763 75.7423C52.7961 109.206 -10.2898 116.086 4.1541 85.2978C7.9165 77.278 21.5405 66.3493 29.9319 63.2978C32.024 62.5371 31.2652 69.6518 31.2652 70.8534" stroke="black" stroke-width="3" stroke-linecap="round"/>
<path d="M69.2652 62.8531C60.2152 69.892 39.4022 87.7595 47.2652 101.52C48.1234 103.022 54.3943 91.8363 54.5985 91.5197C59.4778 83.9569 64.773 76.5944 70.043 69.2975C75.1182 62.2703 73.2652 79.7916 73.2652 81.742C73.2652 86.484 71.7305 100.323 73.5985 95.9642C76.2094 89.8721 80.08 83.6975 85.9319 80.1864C89.4713 78.0628 91.694 81.1582 91.9319 84.6309C92.8575 98.1445 82.3986 113.833 72.9319 122.298C65.0397 129.354 36.5487 147.673 25.7096 136.186C13.3613 123.101 34.5945 97.1404 42.043 88.1864C54.4184 73.3095 69.3224 60.604 88.043 54.742C99.2215 51.2416 118.705 47.8426 128.599 56.8531C132.909 60.7787 128.323 71.3822 123.265 68.8531" stroke="black" stroke-width="3" stroke-linecap="round"/>
<path d="M103.265 58.8535C102.931 66.2095 101.265 88.2171 101.265 80.8535" stroke="black" stroke-width="3" stroke-linecap="round"/>
<path d="M107.265 28.8535V32.8535" stroke="black" stroke-width="3" stroke-linecap="round"/>
<path d="M67.2652 98.8535C114.239 98.8535 160.993 97.4638 207.265 90.8535" stroke="black" stroke-width="3" stroke-linecap="round"/>
<path d="M90.82 127.214L91.36 125.174C92.16 125.634 93.36 126.034 94.62 126.034C96.2 126.034 97.08 125.294 97.08 124.194C97.08 123.174 96.4 122.574 94.68 121.954C92.46 121.154 91.04 119.974 91.04 118.034C91.04 115.834 92.88 114.154 95.8 114.154C97.26 114.154 98.34 114.474 99.04 114.834L98.44 116.814C97.96 116.554 97.02 116.174 95.76 116.174C94.2 116.174 93.52 117.014 93.52 117.794C93.52 118.834 94.3 119.314 96.1 120.014C98.44 120.894 99.58 122.074 99.58 124.014C99.58 126.174 97.94 128.074 94.46 128.074C93.04 128.074 91.56 127.654 90.82 127.214ZM108.771 124.034H104.491L103.331 127.854H100.791L105.111 114.374H108.251L112.631 127.854H109.991L108.771 124.034ZM104.891 122.174H108.351L107.291 118.854C107.031 118.034 106.811 117.114 106.611 116.334H106.571C106.371 117.114 106.171 118.054 105.931 118.854L104.891 122.174ZM117.518 123.034V114.374H119.978V123.114C119.978 126.834 118.178 128.074 115.498 128.074C114.818 128.074 113.958 127.954 113.438 127.754L113.738 125.774C114.138 125.894 114.678 126.014 115.258 126.014C116.658 126.014 117.518 125.374 117.518 123.034ZM122.67 114.374H125.13V127.854H122.67V114.374ZM127.943 127.814V114.554C129.023 114.374 130.403 114.274 131.863 114.274C134.383 114.274 136.123 114.794 137.363 115.834C138.663 116.894 139.463 118.494 139.463 120.794C139.463 123.194 138.643 124.994 137.363 126.154C136.023 127.374 133.883 127.994 131.263 127.994C129.823 127.994 128.743 127.914 127.943 127.814ZM130.403 116.334V125.974C130.743 126.034 131.263 126.034 131.763 126.034C134.963 126.054 136.863 124.294 136.863 120.874C136.883 117.894 135.163 116.194 132.083 116.194C131.303 116.194 130.743 116.254 130.403 116.334ZM145.136 127.214L145.676 125.174C146.476 125.634 147.676 126.034 148.936 126.034C150.516 126.034 151.396 125.294 151.396 124.194C151.396 123.174 150.716 122.574 148.996 121.954C146.776 121.154 145.356 119.974 145.356 118.034C145.356 115.834 147.196 114.154 150.116 114.154C151.576 114.154 152.656 114.474 153.356 114.834L152.756 116.814C152.276 116.554 151.336 116.174 150.076 116.174C148.516 116.174 147.836 117.014 147.836 117.794C147.836 118.834 148.616 119.314 150.416 120.014C152.756 120.894 153.896 122.074 153.896 124.014C153.896 126.174 152.256 128.074 148.776 128.074C147.356 128.074 145.876 127.654 145.136 127.214ZM163.088 124.034H158.808L157.648 127.854H155.108L159.428 114.374H162.568L166.948 127.854H164.308L163.088 124.034ZM159.208 122.174H162.668L161.608 118.854C161.348 118.034 161.128 117.114 160.928 116.334H160.888C160.688 117.114 160.488 118.054 160.248 118.854L159.208 122.174ZM171.834 123.034V114.374H174.294V123.114C174.294 126.834 172.494 128.074 169.814 128.074C169.134 128.074 168.274 127.954 167.754 127.754L168.054 125.774C168.454 125.894 168.994 126.014 169.574 126.014C170.974 126.014 171.834 125.374 171.834 123.034ZM179.666 123.034V114.374H182.126V123.114C182.126 126.834 180.326 128.074 177.646 128.074C176.966 128.074 176.106 127.954 175.586 127.754L175.886 125.774C176.286 125.894 176.826 126.014 177.406 126.014C178.806 126.014 179.666 125.374 179.666 123.034ZM191.798 124.034H187.518L186.358 127.854H183.818L188.138 114.374H191.278L195.658 127.854H193.018L191.798 124.034ZM187.918 122.174H191.378L190.318 118.854C190.058 118.034 189.838 117.114 189.638 116.334H189.598C189.398 117.114 189.198 118.054 188.958 118.854L187.918 122.174ZM197.533 127.814V114.554C198.613 114.374 199.993 114.274 201.453 114.274C203.973 114.274 205.713 114.794 206.953 115.834C208.253 116.894 209.053 118.494 209.053 120.794C209.053 123.194 208.233 124.994 206.953 126.154C205.613 127.374 203.473 127.994 200.853 127.994C199.413 127.994 198.333 127.914 197.533 127.814ZM199.993 116.334V125.974C200.333 126.034 200.853 126.034 201.353 126.034C204.553 126.054 206.453 124.294 206.453 120.874C206.473 117.894 204.753 116.194 201.673 116.194C200.893 116.194 200.333 116.254 199.993 116.334ZM91.35 149.854V137.722H97.884V139.036H92.934V143.068H97.506V144.364H92.934V149.854H91.35ZM103.213 140.962C105.715 140.962 107.407 142.78 107.407 145.426C107.407 148.648 105.157 150.052 103.069 150.052C100.729 150.052 98.893 148.324 98.893 145.57C98.893 142.672 100.819 140.962 103.213 140.962ZM103.177 142.15C101.323 142.15 100.513 143.878 100.513 145.516C100.513 147.424 101.593 148.864 103.141 148.864C104.653 148.864 105.787 147.442 105.787 145.48C105.787 144.004 105.049 142.15 103.177 142.15ZM116.692 141.142V147.46C116.692 148.378 116.71 149.17 116.764 149.854H115.36L115.27 148.432H115.234C114.838 149.134 113.902 150.052 112.354 150.052C110.986 150.052 109.348 149.278 109.348 146.236V141.142H110.932V145.948C110.932 147.604 111.454 148.738 112.876 148.738C113.938 148.738 114.676 148 114.964 147.28C115.054 147.064 115.108 146.776 115.108 146.47V141.142H116.692ZM119.316 149.854V143.5C119.316 142.582 119.298 141.862 119.244 141.142H120.648L120.738 142.582H120.774C121.206 141.772 122.214 140.962 123.654 140.962C124.86 140.962 126.732 141.682 126.732 144.67V149.854H125.148V144.832C125.148 143.428 124.626 142.258 123.132 142.258C122.106 142.258 121.296 142.996 121.008 143.878C120.936 144.076 120.9 144.346 120.9 144.616V149.854H119.316ZM135.24 137.074H136.806V147.604C136.806 148.378 136.842 149.26 136.878 149.854H135.474L135.402 148.342H135.348C134.88 149.314 133.836 150.052 132.414 150.052C130.308 150.052 128.67 148.27 128.67 145.624C128.652 142.726 130.47 140.962 132.576 140.962C133.926 140.962 134.808 141.592 135.204 142.276H135.24V137.074ZM135.24 146.2V144.688C135.24 144.49 135.222 144.22 135.168 144.022C134.934 143.032 134.07 142.204 132.882 142.204C131.244 142.204 130.272 143.644 130.272 145.552C130.272 147.316 131.154 148.774 132.846 148.774C133.908 148.774 134.88 148.054 135.168 146.884C135.222 146.668 135.24 146.452 135.24 146.2ZM146.462 145.786H140.342C140.378 147.928 141.728 148.81 143.33 148.81C144.464 148.81 145.166 148.612 145.742 148.36L146.03 149.494C145.472 149.746 144.5 150.052 143.114 150.052C140.432 150.052 138.83 148.27 138.83 145.642C138.83 143.014 140.378 140.962 142.916 140.962C145.778 140.962 146.516 143.446 146.516 145.048C146.516 145.372 146.498 145.606 146.462 145.786ZM140.36 144.652H144.986C145.004 143.662 144.572 142.096 142.79 142.096C141.17 142.096 140.486 143.554 140.36 144.652ZM148.478 149.854V143.86C148.478 142.834 148.46 141.952 148.406 141.142H149.792L149.864 142.87H149.918C150.314 141.7 151.286 140.962 152.348 140.962C152.51 140.962 152.636 140.98 152.78 140.998V142.492C152.618 142.456 152.456 142.456 152.24 142.456C151.124 142.456 150.332 143.284 150.116 144.472C150.08 144.688 150.062 144.958 150.062 145.21V149.854H148.478ZM164.301 144.508V147.766C164.301 148.522 164.337 149.26 164.427 149.854H163.005L162.879 148.756H162.825C162.339 149.44 161.403 150.052 160.161 150.052C158.397 150.052 157.497 148.81 157.497 147.55C157.497 145.444 159.369 144.292 162.735 144.31V144.13C162.735 143.428 162.537 142.114 160.755 142.132C159.927 142.132 159.081 142.366 158.469 142.78L158.109 141.718C158.829 141.268 159.891 140.962 160.989 140.962C163.653 140.962 164.301 142.78 164.301 144.508ZM162.771 146.92V145.408C161.043 145.372 159.081 145.678 159.081 147.37C159.081 148.414 159.765 148.882 160.557 148.882C161.709 148.882 162.447 148.162 162.699 147.424C162.753 147.244 162.771 147.064 162.771 146.92ZM166.865 149.854V143.5C166.865 142.582 166.847 141.862 166.793 141.142H168.197L168.287 142.582H168.323C168.755 141.772 169.763 140.962 171.203 140.962C172.409 140.962 174.281 141.682 174.281 144.67V149.854H172.697V144.832C172.697 143.428 172.175 142.258 170.681 142.258C169.655 142.258 168.845 142.996 168.557 143.878C168.485 144.076 168.449 144.346 168.449 144.616V149.854H166.865ZM182.789 137.074H184.355V147.604C184.355 148.378 184.391 149.26 184.427 149.854H183.023L182.951 148.342H182.897C182.429 149.314 181.385 150.052 179.963 150.052C177.857 150.052 176.219 148.27 176.219 145.624C176.201 142.726 178.019 140.962 180.125 140.962C181.475 140.962 182.357 141.592 182.753 142.276H182.789V137.074ZM182.789 146.2V144.688C182.789 144.49 182.771 144.22 182.717 144.022C182.483 143.032 181.619 142.204 180.431 142.204C178.793 142.204 177.821 143.644 177.821 145.552C177.821 147.316 178.703 148.774 180.395 148.774C181.457 148.774 182.429 148.054 182.717 146.884C182.771 146.668 182.789 146.452 182.789 146.2ZM199.032 148.216L199.338 149.476C198.78 149.764 197.61 150.052 196.134 150.052C192.714 150.052 190.158 147.892 190.158 143.896C190.158 140.08 192.732 137.524 196.494 137.524C197.988 137.524 198.96 137.848 199.374 138.064L198.978 139.342C198.402 139.054 197.556 138.838 196.548 138.838C193.704 138.838 191.814 140.656 191.814 143.842C191.814 146.83 193.524 148.72 196.458 148.72C197.43 148.72 198.402 148.522 199.032 148.216ZM207.583 142.87V144.166H202.885V148.54H208.141V149.854H201.301V137.722H207.871V139.036H202.885V142.87H207.583ZM215.075 137.506C218.405 137.506 220.547 140.044 220.547 143.662C220.547 147.82 218.009 150.052 214.913 150.052C211.691 150.052 209.459 147.55 209.459 143.878C209.459 140.026 211.835 137.506 215.075 137.506ZM215.021 138.784C212.411 138.784 211.115 141.196 211.115 143.842C211.115 146.452 212.519 148.774 215.003 148.774C217.487 148.774 218.891 146.488 218.891 143.734C218.891 141.304 217.631 138.784 215.021 138.784Z" fill="black"/>
</svg>
