<svg width="15" height="13" viewBox="0 0 15 13" fill="none" xmlns="http://www.w3.org/2000/svg">
<path opacity="0.5" d="M2.81571 6.357C1.13357 6.357 0 5.06645 0 3.15427C0 1.43354 1.30286 -9.53674e-07 3.0675 -9.53674e-07C5.00036 -9.53674e-07 6.42857 1.72073 6.42857 4.34909C6.42857 9.23612 3.78577 11.7245 1.46679 12.6255C0.71298 12.9183 0 12.2904 0 11.4817C0 10.8364 0.468391 10.2928 1.03705 9.98777C2.13504 9.39889 3.14715 8.27478 3.51358 6.98692C3.61933 6.61523 3.20215 6.357 2.81571 6.357ZM11.3861 6.357C9.70607 6.357 8.57143 5.06645 8.57143 3.15427C8.57143 1.43354 9.87429 -9.53674e-07 11.6389 -9.53674e-07C13.5718 -9.53674e-07 15 1.72073 15 4.34909C15 9.23612 12.3572 11.7245 10.0382 12.6255C9.28441 12.9183 8.57143 12.2904 8.57143 11.4817C8.57143 10.8364 9.03982 10.2928 9.60848 9.98777C10.7062 9.39904 11.7181 8.27537 12.0847 6.98792C12.1907 6.61583 11.773 6.357 11.3861 6.357Z" fill="#3B94EC"/>
</svg>
