<svg width="15" height="13" viewBox="0 0 15 13" fill="none" xmlns="http://www.w3.org/2000/svg">
<path opacity="0.5" d="M12.1843 6.34222C13.8664 6.34222 15 7.63276 15 9.54495C15 11.2657 13.6971 12.6992 11.9325 12.6992C9.99964 12.6992 8.57143 10.9785 8.57143 8.35013C8.57143 3.4631 11.2142 0.974737 13.5332 0.0737587C14.287 -0.219112 15 0.40886 15 1.21756C15 1.86284 14.5316 2.40646 13.963 2.71144C12.865 3.30033 11.8529 4.42444 11.4864 5.7123C11.3807 6.08398 11.7978 6.34222 12.1843 6.34222ZM3.61393 6.34222C5.29393 6.34222 6.42857 7.63276 6.42857 9.54495C6.42857 11.2657 5.12571 12.6992 3.36107 12.6992C1.42821 12.6992 0 10.9785 0 8.35013C0 3.4631 2.6428 0.974737 4.96179 0.0737587C5.71559 -0.219112 6.42857 0.40886 6.42857 1.21756C6.42857 1.86284 5.96018 2.40646 5.39152 2.71144C4.29381 3.30018 3.28195 4.42385 2.91528 5.7113C2.8093 6.08339 3.22704 6.34222 3.61393 6.34222Z" fill="#3B94EC"/>
</svg>
